<svg aria-hidden="true" style="position: absolute; width: 0; height: 0; overflow: hidden;" version="1.1" xmlns="http://www.w3.org/2000/svg" xmlns:xlink="http://www.w3.org/1999/xlink">
<defs>
<symbol id="close-icon" viewBox="0 0 32 32">
<path d="M30.355 32c0.422 0 0.843-0.16 1.163-0.483 0.643-0.643 0.643-1.685 0-2.328l-28.707-28.707c-0.643-0.643-1.685-0.643-2.328 0s-0.643 1.685 0 2.329l28.707 28.706c0.323 0.321 0.744 0.483 1.165 0.483z"></path>
<path d="M1.645 32c0.422 0 0.843-0.16 1.163-0.483l28.709-28.706c0.643-0.643 0.643-1.686 0-2.329s-1.685-0.643-2.329 0l-28.707 28.707c-0.643 0.643-0.643 1.685 0 2.328 0.323 0.321 0.744 0.483 1.163 0.483z"></path>
</symbol>
<symbol id="cooking-icon" viewBox="0 0 32 32">
<path fill="#674d40" style="fill: var(--color1, #674d40)" d="M23.047 8.572c-0.114 0-0.223-0.052-0.304-0.144s-0.126-0.218-0.126-0.349c-0.033-1.889-0.711-3.688-1.887-5.011s-2.758-2.063-4.405-2.063-3.229 0.741-4.405 2.063c-1.176 1.323-1.854 3.122-1.887 5.011 0 0.131-0.045 0.256-0.126 0.349s-0.19 0.144-0.304 0.144c-0.114 0-0.223-0.052-0.304-0.144s-0.126-0.218-0.126-0.349c0.029-2.154 0.795-4.209 2.134-5.72s3.141-2.359 5.018-2.359c1.878 0 3.68 0.847 5.018 2.359s2.104 3.566 2.134 5.72c0 0.131-0.045 0.256-0.126 0.349s-0.19 0.144-0.304 0.144z"></path>
<path fill="#674d40" style="fill: var(--color1, #674d40)" d="M24.302 19.732c-0.114 0.001-0.224-0.050-0.305-0.142s-0.127-0.217-0.128-0.348c-0.001-0.131 0.044-0.256 0.124-0.35s0.189-0.146 0.303-0.147c1.637-0.011 3.205-0.759 4.366-2.082s1.824-3.117 1.846-4.995c-0.016-1.896-0.688-3.708-1.866-5.037s-2.769-2.068-4.422-2.054c-0.635-0.001-1.266 0.106-1.873 0.319-0.108 0.036-0.225 0.022-0.324-0.040s-0.174-0.166-0.207-0.289c-0.033-0.124-0.022-0.258 0.030-0.373s0.142-0.202 0.249-0.241c0.689-0.241 1.405-0.363 2.125-0.362 1.881-0.014 3.69 0.829 5.030 2.343s2.102 3.577 2.118 5.734c-0.022 2.137-0.774 4.179-2.095 5.687s-3.104 2.361-4.967 2.376h-0.005z"></path>
<path fill="#674d40" style="fill: var(--color1, #674d40)" d="M8.346 19.732h-0.005c-1.863-0.015-3.646-0.868-4.967-2.376s-2.073-3.55-2.095-5.687c0.016-2.158 0.778-4.22 2.118-5.734s3.149-2.357 5.030-2.343c0.72-0.001 1.436 0.121 2.125 0.362 0.055 0.018 0.106 0.049 0.15 0.090s0.081 0.092 0.108 0.149c0.027 0.058 0.044 0.121 0.050 0.186s-0 0.131-0.017 0.193c-0.017 0.063-0.044 0.121-0.081 0.171s-0.081 0.092-0.132 0.122c-0.050 0.030-0.106 0.049-0.163 0.054s-0.114-0.002-0.168-0.022c-0.607-0.212-1.238-0.32-1.873-0.319-1.653-0.014-3.243 0.725-4.422 2.054s-1.85 3.141-1.866 5.037c0.021 1.878 0.684 3.671 1.846 4.995s2.729 2.071 4.366 2.082c0.056 0 0.112 0.014 0.164 0.039s0.099 0.062 0.139 0.108 0.071 0.101 0.092 0.161c0.021 0.060 0.032 0.124 0.032 0.189s-0.012 0.129-0.034 0.189c-0.022 0.060-0.054 0.114-0.094 0.159s-0.088 0.082-0.14 0.106-0.108 0.037-0.165 0.036z"></path>
<path fill="#674d40" style="fill: var(--color1, #674d40)" d="M24.302 32h-15.955c-0.114 0-0.223-0.052-0.304-0.145s-0.126-0.218-0.126-0.349v-12.267c0-0.131 0.045-0.256 0.126-0.349s0.19-0.144 0.304-0.144 0.223 0.052 0.304 0.144c0.081 0.093 0.126 0.218 0.126 0.349v11.774h15.096v-11.774c0-0.131 0.045-0.256 0.126-0.349s0.19-0.144 0.304-0.144c0.114 0 0.223 0.052 0.304 0.144s0.126 0.218 0.126 0.349v12.267c0 0.131-0.045 0.256-0.126 0.349s-0.19 0.145-0.304 0.145z"></path>
<path fill="#674d40" style="fill: var(--color1, #674d40)" d="M27.294 27.222h-15.955c-0.114 0-0.223-0.052-0.304-0.145s-0.126-0.218-0.126-0.349c0-0.131 0.045-0.256 0.126-0.349s0.19-0.145 0.304-0.145h15.955c0.114 0 0.223 0.052 0.304 0.145s0.126 0.218 0.126 0.349c0 0.131-0.045 0.256-0.126 0.349s-0.19 0.145-0.304 0.145z"></path>
</symbol>
<symbol id="facebook-icon" viewBox="0 0 32 32">
<path d="M22.512 0.007l-3.617-0.007c-4.064 0-6.69 3.091-6.69 7.875v3.631h-3.637c-0.314 0-0.569 0.292-0.569 0.653v5.261c0 0.361 0.255 0.652 0.569 0.652h3.637v13.275c0 0.36 0.254 0.652 0.569 0.652h4.745c0.314 0 0.569-0.292 0.569-0.652v-13.275h4.252c0.314 0 0.569-0.292 0.569-0.652l0.002-5.261c0-0.173-0.060-0.339-0.167-0.461s-0.252-0.191-0.402-0.191h-4.254v-3.078c0-1.479 0.307-2.23 1.987-2.23l2.437-0.001c0.314 0 0.568-0.292 0.568-0.652v-4.885c0-0.36-0.254-0.652-0.568-0.652z"></path>
</symbol>
<symbol id="guests-icon" viewBox="0 0 32 32">
<path fill="#674d40" style="fill: var(--color1, #674d40)" d="M11.887 0c-3.293 0-5.976 3.077-5.976 6.856s2.682 6.856 5.976 6.856c3.293 0 5.976-3.077 5.976-6.856s-2.682-6.856-5.976-6.856zM11.887 12.562c-2.749 0-4.98-2.566-4.98-5.713s2.236-5.713 4.98-5.713c2.749 0 4.98 2.566 4.98 5.713s-2.236 5.713-4.98 5.713z"></path>
<path fill="#674d40" style="fill: var(--color1, #674d40)" d="M24.126 2.846c-2.474 0-4.485 2.306-4.485 5.145s2.010 5.145 4.485 5.145c2.475 0 4.485-2.306 4.485-5.145s-2.010-5.145-4.485-5.145zM24.126 12.001c-1.925 0-3.489-1.795-3.489-4.003s1.564-4.003 3.489-4.003c1.925 0 3.489 1.795 3.489 4.003s-1.564 4.003-3.489 4.003z"></path>
<path fill="#674d40" style="fill: var(--color1, #674d40)" d="M32.148 20.679c-0.452-3.126-2.145-5.762-5.028-7.143 0 0-1.277 1.108-2.994 1.072-1.876-0.042-2.994-1.072-2.994-1.072s-1.393 0.596-2.517 1.837c-1.039-1.058-2.792-1.921-2.792-1.921s-1.607 1.402-3.941 1.381c-2.45-0.021-3.929-1.381-3.929-1.381s-5.297 2.089-6.415 9.176c0 0-1.198 3.757 1.576 9.372h17.554c0 0 1.246-2.488 1.466-4.003h8.731c2.145-3.729 1.283-7.318 1.283-7.318zM20.050 30.857h-16.32c-2.132-4.648-1.21-8.040-1.21-8.040 0.519-3.554 2.511-6.554 5.358-8.075 2.444 1.647 5.578 1.647 8.022 0 2.847 1.521 4.839 4.521 5.358 8.075-0.006 0 0.88 4.178-1.21 8.040zM30.285 26.855h-7.949c0.305-2.019-0.098-4.227-0.098-4.227-0.36-2.495-1.387-4.746-2.89-6.484 0.513-0.533 1.081-0.974 1.705-1.318 1.876 1.234 4.265 1.234 6.141 0 2.108 1.157 3.587 3.393 3.972 6.042 0 0 0.727 2.832-0.88 5.986z"></path>
</symbol>
<symbol id="instagram-icon" viewBox="0 0 32 32">
<path d="M16.316 32c-0.106 0-0.212 0-0.319-0-2.508 0.006-4.826-0.058-7.080-0.195-2.066-0.126-3.953-0.84-5.455-2.065-1.45-1.182-2.44-2.781-2.942-4.75-0.438-1.715-0.461-3.398-0.483-5.026-0.016-1.168-0.033-2.553-0.036-3.96 0.003-1.414 0.020-2.798 0.036-3.966 0.022-1.628 0.045-3.311 0.483-5.026 0.503-1.97 1.493-3.568 2.942-4.75 1.503-1.225 3.389-1.939 5.456-2.065 2.254-0.137 4.572-0.201 7.086-0.195 2.509-0.005 4.826 0.058 7.080 0.195 2.066 0.126 3.953 0.84 5.455 2.065 1.45 1.182 2.44 2.781 2.943 4.75 0.437 1.715 0.461 3.398 0.483 5.026 0.016 1.168 0.033 2.553 0.036 3.96v0.006c-0.003 1.408-0.020 2.792-0.036 3.96-0.022 1.628-0.045 3.311-0.483 5.026-0.503 1.97-1.493 3.568-2.943 4.75-1.502 1.225-3.389 1.939-5.455 2.065-2.159 0.131-4.376 0.195-6.768 0.195zM15.997 29.5c2.468 0.006 4.733-0.056 6.934-0.19 1.563-0.095 2.917-0.602 4.027-1.507 1.026-0.837 1.732-1.991 2.1-3.431 0.364-1.428 0.385-2.96 0.406-4.442 0.016-1.16 0.032-2.535 0.036-3.929-0.004-1.394-0.020-2.769-0.036-3.929-0.020-1.482-0.041-3.015-0.406-4.443-0.367-1.44-1.074-2.594-2.1-3.431-1.11-0.905-2.465-1.412-4.027-1.507-2.201-0.134-4.467-0.196-6.928-0.19-2.467-0.006-4.733 0.056-6.934 0.19-1.563 0.095-2.917 0.602-4.027 1.507-1.026 0.837-1.732 1.991-2.1 3.431-0.364 1.428-0.385 2.96-0.406 4.443-0.016 1.161-0.032 2.537-0.036 3.932 0.003 1.389 0.020 2.765 0.036 3.926 0.020 1.482 0.041 3.015 0.406 4.442 0.367 1.44 1.074 2.594 2.1 3.431 1.11 0.905 2.465 1.412 4.027 1.507 2.201 0.134 4.467 0.197 6.928 0.191zM15.937 23.812c-4.308 0-7.813-3.505-7.813-7.812s3.505-7.813 7.813-7.813c4.308 0 7.813 3.505 7.813 7.813s-3.505 7.812-7.813 7.812zM15.937 10.687c-2.929 0-5.313 2.383-5.313 5.313s2.383 5.312 5.313 5.312c2.93 0 5.313-2.383 5.313-5.312s-2.383-5.313-5.313-5.313zM24.625 5.687c-1.035 0-1.875 0.839-1.875 1.875s0.84 1.875 1.875 1.875c1.036 0 1.875-0.839 1.875-1.875s-0.839-1.875-1.875-1.875z"></path>
</symbol>
<symbol id="language-icon" viewBox="0 0 32 32">
<path fill="#674d40" style="fill: var(--color1, #674d40)" d="M24.62 14.939c0-6.705-6.16-11.099-12.31-11.099-6.175 0-12.31 4.415-12.31 11.099 0 2.529 0.965 5.001 2.718 6.963 0.067 0.075 0.093 0.189 0.067 0.297-0.551 2.314-1.855 4.404-2.39 5.196-0.166 0.246-0.194 0.572-0.071 0.85 0.12 0.272 0.356 0.438 0.621 0.438 0.006 0 0.012 0 0.018-0 2.618-0.075 5.653-0.923 7.529-3.039 0.066-0.074 0.16-0.103 0.252-0.078 1.153 0.314 2.353 0.473 3.566 0.473 6.173-0 12.31-4.414 12.31-11.099zM8.96 24.519c-0.408-0.111-0.828 0.023-1.125 0.358-1.876 2.116-4.939 2.597-6.39 2.704 0.662-1.049 1.74-2.976 2.244-5.099 0.115-0.485-0.006-1.003-0.317-1.351-1.593-1.783-2.435-3.924-2.435-6.193 0-5.527 5.102-10.024 11.373-10.024s11.373 4.497 11.373 10.024-5.102 10.024-11.373 10.024c-1.141 0-2.268-0.149-3.35-0.444z"></path>
<path fill="#674d40" style="fill: var(--color1, #674d40)" d="M27.635 23.875c2.733-1.584 4.365-4.285 4.365-7.224 0-4.154-3.273-7.703-7.782-8.44-0.256-0.042-0.494 0.163-0.53 0.457s0.142 0.566 0.398 0.608c4.043 0.66 6.977 3.762 6.977 7.375 0 2.525-1.439 4.867-3.85 6.264-0.469 0.272-0.72 0.873-0.611 1.461 0.228 1.232 0.715 2.373 1.104 3.147-2.768-0.529-3.817-2.052-4.149-2.712-0.205-0.407-0.588-0.659-1.001-0.659-0.001 0-0.002 0-0.004 0h-0.034c-0.52 0-1.040-0.041-1.547-0.123-0.256-0.041-0.493 0.164-0.529 0.458s0.143 0.566 0.399 0.607c0.55 0.089 1.114 0.133 1.677 0.133h0.039c0.078 0 0.15 0.046 0.188 0.122 1.27 2.524 4.188 3.169 5.384 3.329 0.264 0.035 0.516-0.103 0.657-0.362s0.139-0.578-0.005-0.835c-0.36-0.644-1.003-1.932-1.262-3.328-0.021-0.111 0.027-0.226 0.117-0.278z"></path>
<path fill="#674d40" style="fill: var(--color1, #674d40)" d="M5.016 13.016c-0.896 0-1.625 0.836-1.625 1.864s0.729 1.864 1.625 1.864c0.896 0 1.625-0.836 1.625-1.864s-0.729-1.864-1.625-1.864zM5.016 15.668c-0.379 0-0.687-0.354-0.687-0.788s0.308-0.788 0.687-0.788 0.687 0.354 0.687 0.788c0 0.435-0.308 0.788-0.687 0.788z"></path>
<path fill="#674d40" style="fill: var(--color1, #674d40)" d="M9.651 13.016c-0.896 0-1.625 0.836-1.625 1.864s0.729 1.864 1.625 1.864c0.896 0 1.625-0.836 1.625-1.864s-0.729-1.864-1.625-1.864zM9.651 15.668c-0.379 0-0.687-0.354-0.687-0.788s0.308-0.788 0.687-0.788 0.687 0.354 0.687 0.788c0 0.435-0.308 0.788-0.687 0.788z"></path>
<path fill="#674d40" style="fill: var(--color1, #674d40)" d="M14.285 13.016c-0.896 0-1.625 0.836-1.625 1.864s0.729 1.864 1.625 1.864c0.896 0 1.625-0.836 1.625-1.864s-0.729-1.864-1.625-1.864zM14.285 15.668c-0.379 0-0.687-0.354-0.687-0.788s0.308-0.788 0.687-0.788c0.379 0 0.687 0.354 0.687 0.788s-0.308 0.788-0.687 0.788z"></path>
<path fill="#674d40" style="fill: var(--color1, #674d40)" d="M18.92 13.016c-0.896 0-1.625 0.836-1.625 1.864s0.729 1.864 1.625 1.864c0.896 0 1.625-0.836 1.625-1.864s-0.729-1.864-1.625-1.864zM18.92 15.668c-0.379 0-0.687-0.354-0.687-0.788s0.308-0.788 0.687-0.788c0.379 0 0.687 0.354 0.687 0.788s-0.308 0.788-0.687 0.788z"></path>
</symbol>
<symbol id="location-icon" viewBox="0 0 23 32">
<path d="M11.733 0c6.47 0 11.733 5.131 11.733 11.438 0 2.496-0.809 4.867-2.341 6.857l-8.669 11.382c-0.022 0.028-0.055 0.038-0.079 0.063-0.433 0.452-1.058 0.339-1.367-0.063-2.496-3.247-7.072-9.312-8.832-11.599 0 0-0.001-0.002-0.001-0.003l-0.011-0.014c-1.418-1.942-2.167-4.232-2.167-6.623 0-6.307 5.264-11.438 11.733-11.438zM11.733 17.609c3.483 0 6.33-2.775 6.33-6.171s-2.847-6.171-6.33-6.171c-3.483 0-6.33 2.775-6.33 6.171s2.847 6.171 6.33 6.171z"></path>
</symbol>
<symbol id="menu-icon" viewBox="0 0 60 32">
<path d="M2 0h56c1.105 0 2 0.895 2 2s-0.895 2-2 2h-56c-1.105 0-2-0.895-2-2s0.895-2 2-2z"></path>
<path d="M2 14h56c1.105 0 2 0.895 2 2s-0.895 2-2 2h-56c-1.105 0-2-0.895-2-2s0.895-2 2-2z"></path>
<path d="M2 28h56c1.105 0 2 0.895 2 2s-0.895 2-2 2h-56c-1.105 0-2-0.895-2-2s0.895-2 2-2z"></path>
</symbol>
<symbol id="phone-icon" viewBox="0 0 32 32">
<path d="M29.43 20.474c-1.959 0-3.882-0.299-5.705-0.886-0.893-0.297-1.991-0.025-2.536 0.521l-3.598 2.648c-4.172-2.171-6.743-4.676-8.939-8.713l2.636-3.416c0.685-0.667 0.931-1.641 0.636-2.554-0.605-1.786-0.912-3.66-0.912-5.571 0-1.38-1.152-2.503-2.567-2.503h-5.876c-1.416 0-2.568 1.123-2.568 2.503 0 15.819 13.202 28.689 29.43 28.689 1.416 0 2.568-1.123 2.568-2.503v-5.712c0-1.38-1.152-2.503-2.568-2.503z"></path>
</symbol>
<symbol id="time-icon" viewBox="0 0 32 32">
<path fill="#674d40" style="fill: var(--color1, #674d40)" d="M16 0c-8.822 0-16 7.178-16 16s7.178 16 16 16c8.822 0 16-7.178 16-16s-7.178-16-16-16zM16 30.933c-8.234 0-14.933-6.699-14.933-14.933s6.699-14.933 14.933-14.933c8.234 0 14.933 6.699 14.933 14.933s-6.699 14.933-14.933 14.933z"></path>
<path fill="#674d40" style="fill: var(--color1, #674d40)" d="M16.533 13.878v-5.409c0-0.295-0.239-0.533-0.533-0.533s-0.533 0.238-0.533 0.533v5.409c-0.746 0.194-1.33 0.778-1.524 1.524h-3.809c-0.294 0-0.533 0.238-0.533 0.533s0.239 0.533 0.533 0.533h3.809c0.238 0.917 1.067 1.6 2.058 1.6 1.177 0 2.133-0.957 2.133-2.133 0-0.992-0.683-1.819-1.6-2.058zM16 17.002c-0.588 0-1.067-0.478-1.067-1.067s0.478-1.067 1.067-1.067c0.588 0 1.067 0.478 1.067 1.067s-0.478 1.067-1.067 1.067z"></path>
<path fill="#674d40" style="fill: var(--color1, #674d40)" d="M16 5.269c0.294 0 0.533-0.238 0.533-0.533v-0.533c0-0.295-0.239-0.533-0.533-0.533s-0.533 0.238-0.533 0.533v0.533c0 0.295 0.239 0.533 0.533 0.533z"></path>
<path fill="#674d40" style="fill: var(--color1, #674d40)" d="M16 26.602c-0.294 0-0.533 0.238-0.533 0.533v0.533c0 0.295 0.239 0.533 0.533 0.533s0.533-0.238 0.533-0.533v-0.533c0-0.295-0.239-0.533-0.533-0.533z"></path>
<path fill="#674d40" style="fill: var(--color1, #674d40)" d="M27.733 15.402h-0.533c-0.294 0-0.533 0.238-0.533 0.533s0.239 0.533 0.533 0.533h0.533c0.294 0 0.533-0.238 0.533-0.533s-0.239-0.533-0.533-0.533z"></path>
<path fill="#674d40" style="fill: var(--color1, #674d40)" d="M4.8 15.402h-0.533c-0.294 0-0.533 0.238-0.533 0.533s0.239 0.533 0.533 0.533h0.533c0.294 0 0.533-0.238 0.533-0.533s-0.239-0.533-0.533-0.533z"></path>
<path fill="#674d40" style="fill: var(--color1, #674d40)" d="M23.919 7.262l-0.377 0.377c-0.209 0.209-0.209 0.546 0 0.754 0.104 0.104 0.241 0.156 0.377 0.156s0.273-0.052 0.377-0.156l0.377-0.377c0.209-0.209 0.209-0.546 0-0.754s-0.546-0.208-0.754 0z"></path>
<path fill="#674d40" style="fill: var(--color1, #674d40)" d="M7.703 23.478l-0.377 0.377c-0.209 0.209-0.209 0.546 0 0.754 0.104 0.104 0.241 0.156 0.377 0.156s0.273-0.052 0.377-0.156l0.377-0.377c0.209-0.209 0.209-0.546 0-0.754s-0.546-0.208-0.754 0z"></path>
<path fill="#674d40" style="fill: var(--color1, #674d40)" d="M24.297 23.478c-0.209-0.209-0.546-0.209-0.754 0s-0.209 0.546 0 0.754l0.377 0.377c0.104 0.104 0.241 0.156 0.377 0.156s0.273-0.052 0.377-0.156c0.209-0.209 0.209-0.546 0-0.754l-0.377-0.377z"></path>
<path fill="#674d40" style="fill: var(--color1, #674d40)" d="M8.081 7.261c-0.209-0.209-0.546-0.209-0.754 0s-0.209 0.546 0 0.754l0.377 0.377c0.104 0.104 0.241 0.156 0.377 0.156s0.273-0.052 0.377-0.156c0.209-0.209 0.209-0.546 0-0.754l-0.377-0.377z"></path>
</symbol>
<symbol id="twitter-icon" viewBox="0 0 32 32">
<path d="M32 5.441c-1.19 0.583-2.458 0.97-3.78 1.158 1.36-0.908 2.398-2.334 2.886-4.053-1.268 0.845-2.668 1.442-4.16 1.775-1.204-1.433-2.92-2.321-4.792-2.321-3.632 0-6.556 3.295-6.556 7.335 0 0.581 0.044 1.14 0.152 1.672-5.454-0.297-10.28-3.219-13.522-7.671-0.566 1.098-0.898 2.354-0.898 3.707 0 2.54 1.17 4.791 2.914 6.095-1.054-0.022-2.088-0.364-2.964-0.903 0 0.022 0 0.051 0 0.080 0 3.564 2.274 6.524 5.256 7.206-0.534 0.163-1.116 0.241-1.72 0.241-0.42 0-0.844-0.027-1.242-0.125 0.85 2.904 3.262 5.039 6.13 5.109-2.232 1.952-5.066 3.128-8.134 3.128-0.538 0-1.054-0.027-1.57-0.101 2.906 2.095 6.35 3.291 10.064 3.291 12.072 0 18.672-11.178 18.672-20.868 0-0.324-0.010-0.637-0.024-0.948 1.302-1.033 2.396-2.323 3.288-3.807z"></path>
</symbol>
</defs>
</svg>
